<?xml version="1.0" encoding="utf-8"?>
<!-- Generator: Adobe Illustrator 26.5.0, SVG Export Plug-In . SVG Version: 6.00 Build 0)  -->
<svg version="1.1" id="Layer_1" xmlns="http://www.w3.org/2000/svg" xmlns:xlink="http://www.w3.org/1999/xlink" x="0px" y="0px"
	 viewBox="0 0 764.3 130" style="enable-background:new 0 0 764.3 130;" xml:space="preserve">
<style type="text/css">
	.st0{display:none;}
	.st1{fill:#FFFFFF;}
	.st2{fill:none;stroke:#FFFFFF;stroke-width:7;stroke-miterlimit:10;}
</style>
<path class="st0" d="M364.5,90.3c-7.2,9.6-19.4,17.9-38.6,17.9c-28,0-50.6-20.2-50.6-50.6c0-30.4,23.1-51,50.3-51
	c17.6,0,29.3,6.8,36.5,15.3l-15.5,15.5c-3.7-5.1-10.1-9.7-21-9.7c-13.1,0-27.8,9.3-27.8,29.8c0,18.3,13.5,28.9,28,28.9
	c12.4,0,19.3-6,22.9-12L364.5,90.3z"/>
<path class="st0" d="M460.3,106.2h-23.6l-7-19.8H392l-7,19.8h-22.8l36.7-97.4H424L439.4,50l-16.6,16.6L411.1,33l-12,33.7h46.4
	L460.3,106.2z"/>
<path class="st0" d="M529.6,77.4c0,15.3-12.8,30.8-36,30.8c-23.4,0-35.2-13.2-38.8-25.6l19.5-6.5c2,7.2,8.1,12.9,19.5,12.9
	c8.5,0,13.7-4.1,13.7-10.2c0-4.9-4-8.5-10.4-9.8l-13.3-2.5c-16.5-3.2-26.5-14.2-26.5-28.6c0-18.4,16.2-31.3,34.9-31.3
	c20.4,0,30.1,10.2,34,20.3l-19.5,6.5c-2.1-3.8-6.4-7.6-14.6-7.6c-8.1,0-13.3,5.1-13.3,10.4c0,4.7,2.9,8.1,9.6,9.3l13.1,2.5
	C520,51.6,529.6,63.5,529.6,77.4z"/>
<path class="st0" d="M531,8.7h81.8v20.7h-30.1v76.7H561V51.2l21.7-21.8H531V8.7z"/>
<path class="st0" d="M688.7,77.4c0,15.3-12.8,30.8-36,30.8c-23.4,0-35.2-13.2-38.8-25.6l19.5-6.5c2,7.2,8.1,12.9,19.5,12.9
	c8.5,0,13.7-4.1,13.7-10.2c0-4.9-4-8.5-10.4-9.8L643,66.5c-16.5-3.2-26.5-14.2-26.5-28.6c0-18.4,16.2-31.3,34.9-31.3
	c20.4,0,30.1,10.2,34,20.3l-19.5,6.5c-2.1-3.8-6.4-7.6-14.6-7.6c-8.1,0-13.3,5.1-13.3,10.4c0,4.7,2.9,8.1,9.6,9.3l13.1,2.5
	C679.1,51.6,688.7,63.5,688.7,77.4z"/>
<g>
	<path class="st1" d="M65,55.2c-1.6,8.8-7.8,16.4-18,19.5l10.1,25.8H33.9l-8.5-24.2l-4.3,24.2H0l11.9-67.3h31.4
		C60.2,33.2,67.2,42.9,65,55.2z M38.2,50.9h-8.4l-2,11.4h8.4c4,0,6.4-1.7,7.1-5.7C43.9,53.2,42.2,50.9,38.2,50.9z"/>
	<path class="st1" d="M96.3,33.2l-6.7,38c-1,5.8,0.5,10.1,6.8,10.1c6.4,0,9.7-4.3,10.7-10.1l6.7-38h21l-6.7,38
		c-3.6,20.5-18.2,30.1-35.5,30.1c-16.8,0-27.7-10.2-24.2-30.1l6.7-38H96.3z"/>
	<path class="st1" d="M177.1,90.3h-22.4l-3.6,7.2c-1,2-2.5,3.7-4.3,5l-29.4,21.2L165,32.1l23.2,1.1l12.7,67.3h-22.3L177.1,90.3z
		 M172.1,55.7l-9.4,18.7h12.2L172.1,55.7z"/>
	<path class="st1" d="M270.2,100.5h-21.1l-16.4-33.9l-6,33.9h-21.1l11.9-67.3h21.1l16.3,34.4l6.1-34.4h21.1L270.2,100.5z"/>
	<path class="st1" d="M323.9,32.5c17.9,0,27.8,9.3,27.2,23.7h-22.3c-1.1-2.6-3.9-4.2-8.3-4.2c-8.2,0-13.8,5.8-15.3,14.7
		c-1.9,10.5,2,15.7,12.4,15.7c4.8,0,8.9-1.7,12.8-5.9h-16.8l2.6-14.9h34.3l-3.7,21.1c-6.1,8.1-17.4,18.3-34.8,18.3
		c-21.2,0-31.7-14.2-28.2-34.2C287.4,46.7,302.8,32.5,323.9,32.5z"/>
	<path class="st1" d="M435.3,66.7c0,19.2-13.5,33.9-35,33.9h-28.1V44.9c0-6.4,5.2-11.7,11.7-11.7h16.4
		C421.8,33.2,435.3,47.3,435.3,66.7z M413.9,66.7c0-9.8-6.2-15-15.5-15h-5v30.1h5C407.7,81.7,413.9,76.5,413.9,66.7z"/>
	<path class="st1" d="M441,66.6c0-20.3,15.6-34.5,34.7-34.5c19.2,0,34.5,14.3,34.5,34.5c0,20.3-15.5,34.6-34.5,34.6
		C456.6,101.2,441,86.8,441,66.6z M488.8,66.6c0-9.1-4.7-15-13.1-15c-8.7,0-13.2,5.9-13.2,15c0,8.9,4.6,14.9,13.2,14.9
		C484.2,81.5,488.8,75.5,488.8,66.6z"/>
	<path class="st1" d="M574.8,55.2c0,8.8-4.9,16.4-14.6,19.5l14.6,25.8h-23.2l-12.7-24.2H539v24.2h-21.1V42.6c0-5.2,4.2-9.5,9.5-9.5
		h21.9C566.2,33.2,574.8,42.9,574.8,55.2z M547.3,50.9H539v11.4l8.4,0c3.3,0,6.2-2.7,6.1-6C553.3,53,551.2,50.9,547.3,50.9z"/>
	<path class="st1" d="M602.7,50v8.3h20.9v15.9h-20.9v9.5h23.8v16.8h-44.9V43.2c0-5.6,4.5-10.1,10.1-10.1h34.8V50H602.7z"/>
	<path class="st1" d="M660.3,33.2l14.8,40.4l11.5-32.2c1.8-4.9,6.5-8.2,11.7-8.2h17v67.3h-21V66.9L684,100.5H666l-10.4-33.6v33.6
		h-21.1v-56c0-6.2,5.1-11.3,11.3-11.3H660.3z"/>
	<path class="st1" d="M746,33.2v67.3h-21.1V43c0-5.4,4.4-9.8,9.8-9.8H746z"/>
</g>
<rect x="360.4" y="14.6" class="st2" width="398.8" height="101.7"/>
</svg>
